<svg width="69" height="69" viewBox="0 0 69 69" fill="none" xmlns="http://www.w3.org/2000/svg">
<circle cx="34.5" cy="34.5" r="34.5" fill="#6F80BF"/>
<path d="M19 22.5C18.1716 22.5 17.5 23.1716 17.5 24C17.5 24.8284 18.1716 25.5 19 25.5V22.5ZM51.0607 25.0607C51.6464 24.4749 51.6464 23.5251 51.0607 22.9393L41.5147 13.3934C40.9289 12.8076 39.9792 12.8076 39.3934 13.3934C38.8076 13.9792 38.8076 14.9289 39.3934 15.5147L47.8787 24L39.3934 32.4853C38.8076 33.0711 38.8076 34.0208 39.3934 34.6066C39.9792 35.1924 40.9289 35.1924 41.5147 34.6066L51.0607 25.0607ZM19 25.5H50V22.5H19V25.5Z" fill="white"/>
<path d="M50 43.5C50.8284 43.5 51.5 42.8284 51.5 42C51.5 41.1716 50.8284 40.5 50 40.5V43.5ZM17.9393 40.9393C17.3536 41.5251 17.3536 42.4749 17.9393 43.0607L27.4853 52.6066C28.0711 53.1924 29.0208 53.1924 29.6066 52.6066C30.1924 52.0208 30.1924 51.0711 29.6066 50.4853L21.1213 42L29.6066 33.5147C30.1924 32.9289 30.1924 31.9792 29.6066 31.3934C29.0208 30.8076 28.0711 30.8076 27.4853 31.3934L17.9393 40.9393ZM50 40.5L19 40.5V43.5L50 43.5V40.5Z" fill="white"/>
</svg>
